#!OML:ASF E:\acrobat2\Project_11_07_03\Capture day 1\Session 1\Acrobat.ASF
:FULLY-SPECIFIED
:DEGREES
269
root 8.6843 17.9851 -28.0241 9.38849 -86.5347 -3.61507
lowerback -4.46824 1.01159 3.62875
upperback -3.94227 1.15824 0.336895
thorax -1.48638 0.467437 -1.64941
lowerneck -0.809418 4.02762 0.507738
upperneck -0.325729 5.36359 -1.0855
head 0.0765479 2.67896 -0.390746
rclavicle -3.65267e-015 7.15625e-015
rhumerus -6.52433 -28.8897 -3.9303
rradius 20.7001
rwrist 10.9348
rhand -5.35451 -46.724
rfingers 7.12502
rthumb 20.4528 -75.6668
lclavicle -3.65267e-015 7.15625e-015
lhumerus 4.00157 10.7738 -0.506287
lradius 21.0604
lwrist 10.8975
lhand -10.1059 -5.07894
lfingers 7.12502
lthumb 15.8817 24.2898
rfemur 6.45993 15.1164 12.6401
rtibia -2.44934
rfoot -25.0064 -29.6321
rtoes -0.50018
lfemur 2.52524 -4.45293 -4.05221
ltibia 2.3576
lfoot -23.5887 3.96503
ltoes 35.3069
270
root 8.69708 17.9879 -28.0272 8.16899 -86.3599 -2.40008
lowerback -4.28213 0.969408 3.63108
upperback -3.89301 1.11232 0.402839
thorax -1.54307 0.445998 -1.58692
lowerneck -1.02133 4.10178 0.32244
upperneck -0.238433 5.46418 -1.1864
head 0.135829 2.72804 -0.385018
rclavicle 1.0635e-014 -4.77083e-015
rhumerus -6.60304 -29.3489 -3.85925
rradius 20.7546
rwrist 10.6789
rhand -5.32885 -46.7905
rfingers 7.12502
rthumb 20.4774 -75.7306
lclavicle 1.0635e-014 -4.77083e-015
lhumerus 4.13887 11.3738 -0.22959
lradius 21.0369
lwrist 10.2952
lhand -10.3053 -5.14926
lfingers 7.12502
lthumb 15.6897 24.2346
rfemur 6.63013 15.634 12.7554
rtibia -2.63545
rfoot -25.5861 -30.1231
rtoes 0.448375
lfemur 1.94692 -3.37365 -3.87477
ltibia 3.26386
lfoot -22.6185 3.30993
ltoes 35.1658
271
root 8.70927 17.991 -28.027 6.35658 -86.2076 -0.582996
lowerback -4.10561 0.927796 3.62697
upperback -3.85062 1.06671 0.396718
thorax -1.60025 0.423944 -1.59461
lowerneck -1.10282 4.17659 0.266095
upperneck -0.309715 5.56336 -1.26199
head 0.128938 2.77719 -0.397302
rclavicle -9.93923e-017 1.66979e-014
rhumerus -6.61106 -30.216 -3.89621
rradius 20.682
rwrist 10.7681
rhand -5.34715 -46.7757
rfingers 7.12502
rthumb 20.4598 -75.7177
lclavicle -9.93923e-017 1.66979e-014
lhumerus 4.19343 11.0446 -0.296323
lradius 21.0532
lwrist 10.7296
lhand -10.6248 -5.30341
lfingers 7.12502
lthumb 15.3819 24.1044
rfemur 6.79509 16.108 12.7795
rtibia -2.84706
rfoot -26.0498 -30.5754
rtoes 1.52191
lfemur 1.35915 -2.36479 -3.78867
ltibia 4.21943
lfoot -21.7747 2.78815
ltoes 34.3315
272
root 8.72388 17.9946 -28.0262 4.31982 -86.0259 1.46099
lowerback -3.88853 0.934601 3.65306
upperback -3.85513 1.08637 0.299307
thorax -1.723 0.430732 -1.71209
lowerneck -0.877654 4.23024 0.625455
upperneck -0.601422 5.62783 -1.58062
head 0.0248167 2.81011 -0.560301
rclavicle 6.28657e-015 -2.38542e-015
rhumerus -6.99739 -30.4307 -3.75676
rradius 20.7246
rwrist 10.2709
rhand -5.48749 -46.8682
rfingers 7.12502
rthumb 20.325 -75.8247
lclavicle 6.28657e-015 -2.38542e-015
lhumerus 4.39184 10.4792 -0.414302
lradius 21.1556
lwrist 11.4906
lhand -11.0711 -5.34856
lfingers 7.12502
lthumb 14.952 24.0917
rfemur 6.88704 16.231 12.6706
rtibia -2.98431
rfoot -26.2511 -30.7527
rtoes 2.15624
lfemur 0.799437 -1.80697 -3.83743
ltibia 5.0935
lfoot -21.3441 2.24034
ltoes 34.3172
273
root 8.73951 17.9973 -28.023 3.0725 -85.8395 2.72643
lowerback -3.66165 1.09638 3.75974
upperback -3.92148 1.31036 0.130989
thorax -1.90024 0.534313 -1.94391
lowerneck -0.443512 4.14581 1.33087
upperneck -0.895978 5.50864 -2.1229
head -0.10124 2.75197 -0.856156
rclavicle 6.60959e-015 -8.74653e-015
rhumerus -8.061 -30.3749 -3.17545
rradius 20.903
rwrist 9.61094
rhand -5.58923 -47.1376
rfingers 7.12502
rthumb 20.2272 -76.1044
lclavicle 6.60959e-015 -8.74653e-015
lhumerus 5.06144 10.1958 -0.257768
lradius 21.3178
lwrist 11.802
lhand -11.414 -5.36018
lfingers 7.12502
lthumb 14.6216 24.1044
rfemur 6.88213 16.0878 12.5217
rtibia -3.0297
rfoot -26.3969 -30.7022
rtoes 2.55109
lfemur 0.131632 -0.736727 -3.75045
ltibia 6.12789
lfoot -20.4613 1.57584
ltoes 33.8524
274
root 8.75382 17.9997 -28.0172 1.41067 -85.6732 4.42003
lowerback -3.51181 0.929422 3.65015
upperback -3.72233 1.10044 0.364104
thorax -1.7969 0.441792 -1.64823
lowerneck -1.12139 4.4155 0.93645
upperneck -0.780012 5.86366 -2.52132
head 0.0521728 2.92444 -0.893305
rclavicle 1.38404e-014 1.59028e-015
rhumerus -7.36831 -31.597 -3.39179
rradius 20.7997
rwrist 9.81428
rhand -5.5818 -47.3077
rfingers 7.12502
rthumb 20.2343 -76.2738
lclavicle 1.38404e-014 1.59028e-015
lhumerus 4.59953 10.865 -0.120522
lradius 21.318
lwrist 11.5546
lhand -11.5365 -5.64046
lfingers 7.12502
lthumb 14.5036 23.8326
rfemur 6.87972 16.0818 12.3403
rtibia -3.10167
rfoot -26.6374 -30.8677
rtoes 2.35929
lfemur -0.616189 0.604176 -3.68984
ltibia 7.33154
lfoot -19.3517 0.764502
ltoes 33.159
275
root 8.77008 18.003 -28.0149 -0.868556 -85.4364 6.71183
lowerback -3.2984 0.861397 3.55175
upperback -3.63206 1.02343 0.384954
thorax -1.82901 0.408129 -1.57578
lowerneck -1.36772 4.57315 0.902184
upperneck -0.770573 6.07113 -2.90581
head 0.11092 3.02476 -0.998033
rclavicle 1.69215e-014 1.27222e-014
rhumerus -7.2615 -32.8341 -3.39753
rradius 20.6994
rwrist 10.1448
rhand -5.48658 -47.2755
rfingers 7.12502
rthumb 20.3258 -76.2319
lclavicle 1.69215e-014 1.27222e-014
lhumerus 4.59003 11.043 -0.0501253
lradius 21.3345
lwrist 11.6441
lhand -11.6546 -5.90641
lfingers 7.12502
lthumb 14.3898 23.5748
rfemur 7.01238 16.4648 12.2264
rtibia -3.26254
rfoot -27.2051 -31.3558
rtoes 2.85929
lfemur -1.33475 1.3891 -3.81259
ltibia 8.47294
lfoot -18.7105 0.0160313
ltoes 32.9246
276
root 8.78704 18.0059 -28.0138 -2.17112 -85.1311 8.06427
lowerback -3.08052 0.916773 3.61784
upperback -3.65308 1.10643 0.230739
thorax -1.96449 0.444419 -1.77327
lowerneck -1.27756 4.63612 1.19319
upperneck -0.820891 6.15011 -3.22487
head 0.102451 3.06395 -1.14743
rclavicle -4.42296e-015 1.31198e-014
rhumerus -7.87157 -33.7897 -3.04931
rradius 20.6811
rwrist 10.1516
rhand -5.59698 -47.1542
rfingers 7.12502
rthumb 20.2197 -76.1219
lclavicle -4.42296e-015 1.31198e-014
lhumerus 5.02142 10.6541 -0.0623206
lradius 21.4514
lwrist 12.1545
lhand -11.8237 -5.98659
lfingers 7.12502
lthumb 14.2269 23.5062
rfemur 7.14756 16.8361 12.1966
rtibia -3.45079
rfoot -27.7659 -31.747
rtoes 4.32867
lfemur -2.18241 2.30149 -3.85662
ltibia 9.74712
lfoot -17.9964 -0.650438
ltoes 32.129
277
root 8.80168 18.0094 -28.0099 -4.39809 -84.8389 10.3904
lowerback -2.92156 0.974302 3.57941
upperback -3.65896 1.19087 0.0925053
thorax -2.05266 0.484949 -1.89531
lowerneck -1.30527 4.72055 1.25739
upperneck -0.812129 6.26127 -3.42833
head 0.121443 3.1184 -1.21949
rclavicle -2.01269e-015 5.1684e-015
rhumerus -8.47128 -34.4635 -2.66295
rradius 20.7079
rwrist 9.59523
rhand -5.97824 -47.1093
rfingers 7.12502
rthumb 19.8533 -76.1153
lclavicle -2.01269e-015 5.1684e-015
lhumerus 5.45514 10.5599 0.00962573
lradius 21.511
lwrist 12.3843
lhand -11.8582 -5.86344
lfingers 7.12502
lthumb 14.1936 23.6316
rfemur 7.19128 16.9223 11.9309
rtibia -3.62902
rfoot -28.2307 -31.8996
rtoes 5.5509
lfemur -3.09792 3.30227 -4.0502
ltibia 11.0905
lfoot -17.2573 -1.14729
ltoes 30.7768
278
root 8.81705 18.014 -28.0062 -7.07129 -84.5725 13.1791
lowerback -2.7851 0.968934 3.39996
upperback -3.60605 1.19262 0.0197865
thorax -2.07579 0.49071 -1.87144
lowerneck -1.43985 4.81736 1.1645
upperneck -0.866851 6.38735 -3.6793
head 0.135838 3.17936 -1.27813
rclavicle 9.11925e-015 5.56597e-015
rhumerus -8.78688 -35.4038 -2.49935
rradius 20.7296
rwrist 9.06496
rhand -6.32788 -46.9791
rfingers 7.12502
rthumb 19.5171 -76.0195
lclavicle 9.11925e-015 5.56597e-015
lhumerus 5.82956 11.3958 0.296823
lradius 21.3957
lwrist 11.831
lhand -11.7528 -5.77482
lfingers 7.12502
lthumb 14.2952 23.7131
rfemur 7.15311 16.9761 11.5498
rtibia -3.74978
rfoot -28.8957 -32.0684
rtoes 6.32286
lfemur -3.99785 4.09498 -4.37016
ltibia 12.3647
lfoot -16.8074 -1.36311
ltoes 28.218
279
root 8.83801 18.0176 -28.0031 -6.99119 -84.2774 13.2217
lowerback -2.60088 1.02465 3.47749
upperback -3.60592 1.27363 -0.104039
thorax -2.17036 0.526884 -2.0446
lowerneck -1.40694 4.875 1.60261
upperneck -0.958666 6.45468 -4.16334
head 0.136296 3.21163 -1.50528
rclavicle 1.27222e-014 3.97569e-015
rhumerus -9.47503 -36.609 -2.16612
rradius 20.7584
rwrist 8.69005
rhand -6.58724 -46.7284
rfingers 7.12502
rthumb 19.2678 -75.7939
lclavicle 1.27222e-014 3.97569e-015
lhumerus 6.43488 11.8259 0.510734
lradius 21.3595
lwrist 11.7077
lhand -11.822 -5.89204
lfingers 7.12502
lthumb 14.2286 23.6006
rfemur 7.06919 17.1218 11.4873
rtibia -3.78905
rfoot -29.7449 -32.2356
rtoes 7.42224
lfemur -5.02492 4.83334 -4.39245
ltibia 13.7522
lfoot -16.4359 -1.89842
ltoes 27.1767
280
root 8.86349 18.0171 -27.998 -5.97004 -83.9303 12.3425
lowerback -2.377 1.07405 3.59382
upperback -3.64114 1.34834 -0.167989
thorax -2.3243 0.557605 -2.17957
lowerneck -1.38179 4.96727 2.02041
upperneck -0.947875 6.57244 -4.62091
head 0.170619 3.26846 -1.7205
rclavicle -1.39149e-014 -7.15625e-015
rhumerus -10.1311 -37.6679 -1.71657
rradius 20.7893
rwrist 7.93793
rhand -6.71907 -46.8458
rfingers 7.12502
rthumb 19.141 -75.9239
lclavicle -1.39149e-014 -7.15625e-015
lhumerus 6.96683 12.2454 0.793018
lradius 21.3504
lwrist 11.5028
lhand -11.9076 -6.09594
lfingers 7.12502
lthumb 14.146 23.4025
rfemur 6.98879 17.3219 11.5361
rtibia -3.85257
rfoot -30.4558 -32.4556
rtoes 8.74578
lfemur -6.15633 5.34103 -4.33758
ltibia 15.1847
lfoot -16.0391 -2.75964
ltoes 28.8153
281
root 8.88712 18.0135 -27.9888 -4.82852 -83.6166 11.3405
lowerback -2.17916 1.11283 3.72142
upperback -3.6505 1.40919 -0.156171
thorax -2.43906 0.583073 -2.24263
lowerneck -1.32636 5.13602 2.00401
upperneck -1.13492 6.79017 -4.81808
head 0.117937 3.3787 -1.78237
rclavicle -1.71452e-014 -2.78299e-015
rhumerus -10.5672 -38.5969 -1.27953
rradius 20.788
rwrist 6.82795
rhand -6.95926 -47.2021
rfingers 7.12502
rthumb 18.91 -76.3029
lclavicle -1.71452e-014 -2.78299e-015
lhumerus 7.53184 13.5265 1.40114
lradius 21.1854
lwrist 10.3703
lhand -11.9293 -6.23943
lfingers 7.12502
lthumb 14.1251 23.2604
rfemur 6.93623 17.5864 11.6241
rtibia -3.96955
rfoot -31.0579 -32.8324
rtoes 9.87773
lfemur -7.28032 5.89918 -4.27667
ltibia 16.622
lfoot -15.4441 -3.43016
ltoes 29.9293
282
root 8.90772 18.01 -27.9745 -3.26437 -83.3332 9.8966
lowerback -2.01148 1.17462 3.9856
upperback -3.63289 1.49941 -0.143525
thorax -2.50408 0.621064 -2.38064
lowerneck -1.31577 5.32977 2.02619
upperneck -1.29697 7.03877 -5.23747
head 0.0922735 3.50287 -1.92004
rclavicle 2.40405e-014 -1.19271e-015
rhumerus -11.0541 -39.6116 -0.811574
rradius 20.817
rwrist 5.62471
rhand -7.37077 -47.4631
rfingers 7.12502
rthumb 18.5142 -76.6021
lclavicle 2.40405e-014 -1.19271e-015
lhumerus 8.08879 14.5067 1.93893
lradius 21.1103
lwrist 9.69964
lhand -12.1782 -6.30839
lfingers 7.12502
lthumb 13.8853 23.2081
rfemur 6.91457 17.87 11.7906
rtibia -4.08685
rfoot -31.5898 -33.2567
rtoes 10.2891
lfemur -8.38965 6.73062 -4.15329
ltibia 18.1819
lfoot -14.4339 -4.57806
ltoes 35.2574
283
root 8.92706 18.0076 -27.9568 -1.48821 -83.0552 8.2376
lowerback -1.85083 1.19684 4.31561
upperback -3.60389 1.53749 -0.110163
thorax -2.55581 0.63188 -2.53423
lowerneck -1.44459 5.50629 2.0755
upperneck -1.3173 7.26805 -5.68351
head 0.136737 3.61373 -2.06482
rclavicle 1.36043e-014 6.36111e-015
rhumerus -11.3768 -40.4831 -0.50846
rradius 20.8612
rwrist 4.18198
rhand -7.75713 -47.7483
rfingers 7.12502
rthumb 18.1425 -76.9222
lclavicle 1.36043e-014 6.36111e-015
lhumerus 8.22358 14.215 1.91024
lradius 21.2871
lwrist 10.4564
lhand -12.5226 -6.39851
lfingers 7.12502
lthumb 13.5534 23.1404
rfemur 6.86701 17.9549 11.9403
rtibia -4.19245
rfoot -31.664 -33.5998
rtoes 9.79435
lfemur -9.49175 7.56887 -3.9865
ltibia 19.7854
lfoot -13.0541 -6.33786
ltoes 43.7598
